<svg width="26" height="23" viewBox="0 0 26 23" fill="none" xmlns="http://www.w3.org/2000/svg">
<rect width="26" height="23" fill="#E5E5E5"/>
<g id="Home" clip-path="url(#clip0_0_1)">
<rect width="1600" height="6414.17" transform="translate(-1303 -51.5833)" fill="white"/>
<g id="Group 309">
<g id="Rectangle 1" filter="url(#filter0_d_0_1)">
<rect x="-1303" y="-51.5833" width="1600" height="108.333" fill="white"/>
</g>
<g id="Nav top">
<g id="Frame" clip-path="url(#clip1_0_1)">
<g id="Group">
<path id="Vector" d="M0.5 0.633779C0.682081 0.225051 0.990445 0.0767387 1.43341 0.082691C2.78434 0.102036 4.13576 0.0891394 5.48717 0.0901315C6.01873 0.0901315 6.25417 0.27515 6.37653 0.808381C6.54491 1.54548 6.70399 2.28506 6.87481 3.06035C6.97172 3.06035 7.07402 3.06035 7.17681 3.06035C12.9892 3.06035 18.8016 3.0673 24.6136 3.04944C25.2087 3.04746 25.6512 3.46858 25.4515 4.166C24.4946 7.50675 23.5597 10.8545 22.6165 14.1992C22.4516 14.7845 22.245 14.9397 21.6361 14.9397C17.3298 14.9397 13.0235 14.9397 8.71716 14.9397C8.27273 14.9397 7.9903 15.1079 7.87675 15.4363C7.71767 15.8971 8.01624 16.3619 8.51256 16.4199C8.60899 16.4313 8.70786 16.4263 8.80526 16.4263C13.1277 16.4268 17.4507 16.4263 21.7732 16.4268C22.2441 16.4268 22.5647 16.7116 22.5788 17.1357C22.593 17.5613 22.2842 17.8991 21.8618 17.908C21.504 17.9154 21.1462 17.9095 20.781 17.9263C21.3757 18.0732 21.8632 18.3822 22.2029 18.8951C22.5495 19.4184 22.6586 20.0002 22.5275 20.6193C22.3038 21.6753 21.3263 22.4223 20.2573 22.3613C19.1957 22.3008 18.3342 21.4809 18.2006 20.3951C18.0904 19.5017 18.5408 18.3033 20.0292 17.9214C16.7987 17.9214 13.6123 17.9214 10.4254 17.9214C11.0088 18.0712 11.4959 18.3733 11.836 18.8812C12.1801 19.3946 12.2937 19.9635 12.1792 20.5781C11.9868 21.6094 11.0441 22.3817 9.99222 22.3653C8.91784 22.3489 8.02016 21.5498 7.85423 20.462C7.67753 19.3033 8.33342 18.3683 9.67945 17.9105C9.31529 17.9105 8.9986 17.911 8.68143 17.9105C7.55027 17.909 6.69566 17.2656 6.42254 16.2101C6.16753 15.225 6.6291 14.2299 7.59286 13.6843C7.62027 13.6689 7.64523 13.6491 7.67851 13.6263C6.79747 9.60942 5.9179 5.59704 5.0354 1.57326C4.26302 1.57326 3.50679 1.57326 2.75057 1.57326C2.31935 1.57326 1.88666 1.55242 1.45642 1.57921C1.00758 1.60649 0.685508 1.45322 0.5 1.02961C0.5 0.897666 0.5 0.765723 0.5 0.633779ZM23.801 4.55241C18.2573 4.55241 12.7401 4.55241 7.2003 4.55241C7.85227 7.52511 8.50082 10.4844 9.14936 13.4412C13.2095 13.4412 17.2515 13.4412 21.2945 13.4412C22.13 10.479 22.9616 7.53056 23.801 4.55241ZM10.7568 20.159C10.771 19.7696 10.4376 19.4129 10.0461 19.3986C9.66183 19.3842 9.3099 19.722 9.29571 20.1188C9.28152 20.5082 9.61484 20.8648 10.0064 20.8792C10.3906 20.8936 10.7421 20.5563 10.7568 20.159ZM20.4188 19.4C20.0371 19.3742 19.6797 19.7021 19.6533 20.1024C19.6279 20.4893 19.9514 20.8514 20.3464 20.8782C20.7282 20.904 21.0855 20.5761 21.1119 20.1758C21.1374 19.7884 20.8138 19.4268 20.4188 19.4Z" fill="#2C2C2C"/>
</g>
</g>
</g>
</g>
<g id="Nav top/state8">
<g id="Group 752">
<circle id="Ellipse 23" cx="23.6667" cy="2.25004" r="6.66667" fill="#E05000"/>
<path id="3" d="M23.8342 5.85772C23.3059 5.85772 22.834 5.76667 22.4185 5.58458C22.0056 5.40248 21.6786 5.14986 21.4375 4.8267C21.199 4.50099 21.0707 4.12397 21.0528 3.69567H22.2608C22.2761 3.92906 22.3544 4.13167 22.4954 4.3035C22.639 4.47277 22.8263 4.60357 23.0571 4.6959C23.2879 4.78823 23.5444 4.8344 23.8265 4.8344C24.1368 4.8344 24.4113 4.78054 24.6498 4.67282C24.8909 4.5651 25.0794 4.41507 25.2153 4.22272C25.3512 4.0278 25.4192 3.80339 25.4192 3.54948C25.4192 3.28531 25.3512 3.05321 25.2153 2.85316C25.0819 2.65055 24.8857 2.49154 24.6267 2.37612C24.3702 2.26071 24.0599 2.20301 23.6957 2.20301H23.0302V1.23355H23.6957C23.9881 1.23355 24.2446 1.18097 24.4651 1.07582C24.6883 0.970664 24.8627 0.824475 24.9883 0.637251C25.114 0.447463 25.1768 0.225616 25.1768 -0.0282906C25.1768 -0.271938 25.1217 -0.483527 25.0114 -0.663056C24.9037 -0.845151 24.7498 -0.987492 24.5498 -1.09008C24.3523 -1.19267 24.1189 -1.24396 23.8496 -1.24396C23.5931 -1.24396 23.3533 -1.19652 23.1302 -1.10162C22.9096 -1.00929 22.7301 -0.875927 22.5916 -0.701527C22.4531 -0.529692 22.3787 -0.323233 22.3685 -0.0821499H21.2182C21.231 -0.507891 21.3567 -0.882339 21.5952 -1.20549C21.8363 -1.52865 22.1543 -1.78127 22.5493 -1.96336C22.9442 -2.14546 23.3828 -2.23651 23.865 -2.23651C24.3702 -2.23651 24.8062 -2.13776 25.173 -1.94028C25.5423 -1.74536 25.827 -1.48505 26.027 -1.15933C26.2296 -0.83361 26.3297 -0.477115 26.3271 -0.0898436C26.3297 0.351286 26.2066 0.725734 25.9578 1.0335C25.7116 1.34126 25.3833 1.54772 24.9729 1.65288V1.71443C25.4961 1.79394 25.9014 2.00168 26.1886 2.33765C26.4784 2.67363 26.622 3.0904 26.6195 3.58795C26.622 4.02139 26.5015 4.40994 26.2579 4.75361C26.0168 5.09728 25.6872 5.36786 25.2692 5.56534C24.8511 5.76026 24.3728 5.85772 23.8342 5.85772Z" fill="white"/>
</g>
</g>
</g>
<defs>
<filter id="filter0_d_0_1" x="-1311.33" y="-58.2499" width="1616.67" height="125" filterUnits="userSpaceOnUse" color-interpolation-filters="sRGB">
<feFlood flood-opacity="0" result="BackgroundImageFix"/>
<feColorMatrix in="SourceAlpha" type="matrix" values="0 0 0 0 0 0 0 0 0 0 0 0 0 0 0 0 0 0 127 0" result="hardAlpha"/>
<feOffset dy="1.66667"/>
<feGaussianBlur stdDeviation="4.16667"/>
<feComposite in2="hardAlpha" operator="out"/>
<feColorMatrix type="matrix" values="0 0 0 0 0 0 0 0 0 0 0 0 0 0 0 0 0 0 0.15 0"/>
<feBlend mode="normal" in2="BackgroundImageFix" result="effect1_dropShadow_0_1"/>
<feBlend mode="normal" in="SourceGraphic" in2="effect1_dropShadow_0_1" result="shape"/>
</filter>
<clipPath id="clip0_0_1">
<rect width="1600" height="6414.17" fill="white" transform="translate(-1303 -51.5833)"/>
</clipPath>
<clipPath id="clip1_0_1">
<rect width="25" height="22.2826" fill="white" transform="translate(0.5 0.0834961)"/>
</clipPath>
</defs>
</svg>
